<svg width="16" height="16" viewBox="0 0 16 16" fill="none" xmlns="http://www.w3.org/2000/svg">
<g clip-path="url(#clip0_44_33363)">
<path d="M16 1V15H0V1H3V0H4V1H12V0H13V1H16ZM1 2V4H15V2H13V3H12V2H4V3H3V2H1ZM15 14V5H1V14H15ZM11 7V12H10V8.20312C9.85938 8.27604 9.69792 8.34375 9.51562 8.40625C9.33333 8.46875 9.16146 8.5 9 8.5V7.5C9.0625 7.5 9.14323 7.48438 9.24219 7.45312C9.34115 7.42188 9.44271 7.38281 9.54688 7.33594C9.65104 7.28906 9.74479 7.23438 9.82812 7.17188C9.91146 7.10938 9.96875 7.05469 10 7.00781V7H11ZM8 8.5C8 8.70312 7.97135 8.88542 7.91406 9.04688C7.85677 9.20833 7.77604 9.35938 7.67188 9.5C7.56771 9.64062 7.45312 9.77344 7.32812 9.89844C7.20312 10.0234 7.07031 10.1432 6.92969 10.2578C6.78906 10.3724 6.65625 10.4922 6.53125 10.6172C6.40625 10.7422 6.28385 10.8698 6.16406 11H8V12H5V11.7188C5 11.6198 4.9974 11.5208 4.99219 11.4219C4.98698 11.3229 4.9974 11.224 5.02344 11.125C5.04948 11.026 5.07552 10.9323 5.10156 10.8438C5.15885 10.7031 5.24479 10.5651 5.35938 10.4297C5.47396 10.2943 5.60417 10.1562 5.75 10.0156C5.89583 9.875 6.03906 9.74219 6.17969 9.61719C6.32031 9.49219 6.45312 9.36458 6.57812 9.23438C6.70312 9.10417 6.80469 8.98177 6.88281 8.86719C6.96094 8.7526 7 8.63021 7 8.5C7 8.35938 6.95052 8.24219 6.85156 8.14844C6.7526 8.05469 6.63542 8.00521 6.5 8C6.38021 8 6.27604 8.03646 6.1875 8.10938C6.09896 8.18229 6.03906 8.27865 6.00781 8.39844L5.03125 8.19531C5.0625 8.02344 5.1224 7.86458 5.21094 7.71875C5.29948 7.57292 5.41406 7.44792 5.55469 7.34375C5.69531 7.23958 5.84375 7.15625 6 7.09375C6.15625 7.03125 6.32292 7 6.5 7C6.70833 7 6.90365 7.03906 7.08594 7.11719C7.26823 7.19531 7.42708 7.30208 7.5625 7.4375C7.69792 7.57292 7.80469 7.73177 7.88281 7.91406C7.96094 8.09635 8 8.29167 8 8.5Z" fill="black"/>
</g>
<defs>
<clipPath id="clip0_44_33363">
<rect width="16" height="16" fill="white"/>
</clipPath>
</defs>
</svg>
